<?xml version="1.0" encoding="UTF-8" standalone="no"?>
<!-- The icon can be used freely in both personal and commercial projects with no attribution required, but always appreciated. 
You may NOT sub-license, resell, rent, redistribute or otherwise transfer the icon without express written permission from iconmonstr.com -->

<svg
   xmlns:dc="http://purl.org/dc/elements/1.1/"
   xmlns:cc="http://creativecommons.org/ns#"
   xmlns:rdf="http://www.w3.org/1999/02/22-rdf-syntax-ns#"
   xmlns:svg="http://www.w3.org/2000/svg"
   xmlns="http://www.w3.org/2000/svg"
   xmlns:sodipodi="http://sodipodi.sourceforge.net/DTD/sodipodi-0.dtd"
   xmlns:inkscape="http://www.inkscape.org/namespaces/inkscape"
   version="1.1"
   x="0px"
   y="0px"
   width="423.29999"
   height="424"
   viewBox="0 0 423.29999 424.00001"
   enable-background="new 0 0 512 512"
   xml:space="preserve"
   id="svg3050"
   inkscape:version="0.48.4 r9939"
   sodipodi:docname="app-icon.svg"><metadata
     id="metadata3057"><rdf:RDF><cc:Work
         rdf:about=""><dc:format>image/svg+xml</dc:format><dc:type
           rdf:resource="http://purl.org/dc/dcmitype/StillImage" /><dc:title></dc:title></cc:Work></rdf:RDF></metadata><defs
     id="defs3055" /><sodipodi:namedview
     pagecolor="#ffffff"
     bordercolor="#666666"
     borderopacity="1"
     objecttolerance="10"
     gridtolerance="10"
     guidetolerance="10"
     inkscape:pageopacity="0"
     inkscape:pageshadow="2"
     inkscape:window-width="1295"
     inkscape:window-height="744"
     id="namedview3053"
     showgrid="false"
     inkscape:zoom="1.4150943"
     inkscape:cx="211.64999"
     inkscape:cy="222.93028"
     inkscape:window-x="65"
     inkscape:window-y="24"
     inkscape:window-maximized="1"
     inkscape:current-layer="svg3050"
     fit-margin-top="0"
     fit-margin-left="0"
     fit-margin-right="0"
     fit-margin-bottom="0" /><path
     id="debug-4-icon-2"
     d="m 364.142,300.57099 c 7.824,-12.331 12.361,-26.944 12.361,-42.597 0,-43.967 -35.769,-79.736 -79.735,-79.736 -43.965,0 -79.734,35.77 -79.734,79.736 0,43.964 35.77,79.734 79.734,79.734 14.878,0 28.812,-4.101 40.745,-11.222 l 53.863,53.864 26.274,-26.273 z m -67.374,7.413 c -27.575,0 -50.009,-22.436 -50.009,-50.01 0,-27.577 22.434,-50.012 50.009,-50.012 27.576,0 50.013,22.435 50.013,50.012 0,27.574 -22.437,50.01 -50.013,50.01 z m -100.246,-5.395 -190.8719999,0 0,-258.674005 334.5829999,0 0,113.307005 c -10.639,-4.607 -22.143,-7.576 -34.197,-8.59 l 0,-70.521 -266.189,0.002 0,190.28 147.686,0 c 1.14,12.07 4.244,23.576 8.989,34.196 z m 52.988,54.41 -158.183005,0 34.194005,-34.195 82.769,0 c 10.672,14.524 24.824,26.338 41.22,34.195 z"
     inkscape:connector-curvature="0"
     sodipodi:nodetypes="cssssccccssssscccccccccccccccc"
     style="fill:none;stroke:#f9f9ff;stroke-width:11.30000019;stroke-linecap:butt;stroke-miterlimit:4;stroke-opacity:1;stroke-dasharray:none;stroke-dashoffset:0" /><path
     id="debug-4-icon"
     d="m 363.18659,299.99184 c 7.824,-12.331 12.361,-26.944 12.361,-42.597 0,-43.967 -35.769,-79.736 -79.735,-79.736 -43.965,0 -79.734,35.77 -79.734,79.736 0,43.964 35.77,79.734 79.734,79.734 14.878,0 28.812,-4.101 40.745,-11.222 l 53.863,53.864 26.274,-26.273 z m -67.374,7.413 c -27.575,0 -50.009,-22.436 -50.009,-50.01 0,-27.577 22.434,-50.012 50.009,-50.012 27.576,0 50.013,22.435 50.013,50.012 0,27.574 -22.437,50.01 -50.013,50.01 z m -100.246,-5.395 -190.8720049,0 0,-258.674003 334.5830049,0 0,113.307003 c -10.639,-4.607 -22.143,-7.576 -34.197,-8.59 l 0,-70.521 -266.189005,0.002 0,190.28 147.686005,0 c 1.14,12.07 4.244,23.576 8.989,34.196 z m 52.988,54.41 -158.183005,0 34.194005,-34.195 82.769,0 c 10.672,14.524 24.824,26.338 41.22,34.195 z"
     inkscape:connector-curvature="0"
     sodipodi:nodetypes="cssssccccssssscccccccccccccccc"
     style="fill:#6abc12;fill-opacity:1;stroke:#000000;stroke-width:1;stroke-linecap:butt;stroke-miterlimit:4;stroke-opacity:1;stroke-dasharray:1, 4;stroke-dashoffset:0" /><path
     inkscape:connector-curvature="0"
     id="picture-multi-6-icon-5"
     d="m 114.43273,159.2341 c 0,-4.77198 3.86849,-8.64047 8.64081,-8.64047 4.7713,0 8.63979,3.86849 8.63979,8.64047 0,4.77232 -3.86849,8.64047 -8.63979,8.64047 -4.77232,0 -8.64081,-3.86815 -8.64081,-8.64047 z M 77.390285,119.59123 H 184.01662 V 108.27057 H 66.069955 v 89.69852 h 11.32033 v -78.37786 z m 80.868205,39.91958 -14.32335,20.35026 -7.78376,-8.02309 -21.96337,24.95528 h 68.65379 l -24.58331,-37.28245 z m 46.50057,-29.16983 v 88.01844 H 88.156535 V 130.34098 H 204.75906 z m -11.32033,11.32101 H 99.47686 v 65.37642 h 93.96187 v -65.37642 z"
     style="fill:none;stroke:#ffffff;stroke-width:10;stroke-miterlimit:4;stroke-opacity:1;stroke-dasharray:none" /><path
     inkscape:connector-curvature="0"
     id="picture-multi-6-icon"
     d="m 114.88787,158.65939 c 0,-4.77198 3.86849,-8.64047 8.64081,-8.64047 4.7713,0 8.63979,3.86849 8.63979,8.64047 0,4.77232 -3.86849,8.64047 -8.63979,8.64047 -4.77232,0 -8.64081,-3.86815 -8.64081,-8.64047 z M 77.845425,119.01652 H 184.47176 V 107.69586 H 66.525095 v 89.69852 h 11.32033 v -78.37786 z m 80.868205,39.91958 -14.32335,20.35026 -7.78376,-8.02309 -21.96337,24.95528 h 68.65379 L 158.71363,158.9361 z m 46.50057,-29.16983 v 88.01844 H 88.611675 V 129.76627 H 205.2142 z m -11.32033,11.32101 H 99.932 v 65.37642 h 93.96187 v -65.37642 z"
     style="fill:#a72622;fill-opacity:1;fill-rule:nonzero;stroke:#dd23b4;stroke-opacity:1" /></svg>